<?xml version="1.0" encoding="UTF-8"?>
<!-- Generated by Pixelmator Pro 3.3.11 -->
<svg width="691" height="554" viewBox="0 0 691 554" xmlns="http://www.w3.org/2000/svg">
    <linearGradient id="linearGradient1" x1="-0.255986" y1="276.107441" x2="690.000004" y2="276.107441" gradientUnits="userSpaceOnUse">
        <stop offset="1e-05" stop-color="#6675b1" stop-opacity="1"/>
        <stop offset="1" stop-color="#619fb8" stop-opacity="1"/>
    </linearGradient>
    <path id="Shape-copy-2" fill="url(#linearGradient1)" fill-rule="evenodd" stroke="none" d="M 101.822113 552.214844 C 68.856422 552.214844 43.602524 543.501404 26.058773 526.076904 C 8.515017 508.652344 -0.256047 483.620941 -0.256047 450.984863 L -0.256047 101.374237 C -0.256047 68.545105 8.515017 43.443268 26.058773 26.065613 C 43.602524 8.687988 68.856422 0 101.822113 0 L 587.921814 0 C 620.983337 0 646.262634 8.713379 663.757629 26.137939 C 681.252563 43.5625 690 68.642548 690 101.374237 L 690 450.984863 C 690 483.620941 681.252563 508.652344 663.757629 526.076904 C 646.262634 543.501404 620.983337 552.214844 587.921814 552.214844 L 101.822113 552.214844 Z M 109.918716 477.700378 L 579.825256 477.700378 C 591.392151 477.700378 600.211914 474.78894 606.284485 468.963898 C 612.357117 463.138885 615.393188 454.066101 615.393188 441.742767 L 615.393188 110.472076 C 615.393188 98.148743 612.357117 89.076447 606.284485 83.251373 C 600.211914 77.426361 591.392151 74.514465 579.825256 74.514465 L 109.918716 74.514465 C 98.25602 74.514465 89.411263 77.426361 83.387428 83.251373 C 77.363609 89.076447 74.350761 98.148743 74.350761 110.472076 L 74.350761 441.742767 C 74.350761 454.066101 77.363609 463.138885 83.387428 468.963898 C 89.411263 474.78894 98.25602 477.700378 109.918716 477.700378 Z M 287.615753 298.346375 C 280.771393 298.346375 274.987732 295.940094 270.265167 291.125916 C 265.542603 286.311707 263.180634 280.632843 263.180634 274.085785 C 263.180634 267.249878 265.566254 261.473389 270.337616 256.756653 C 275.108978 252.039978 280.868988 249.680908 287.615753 249.680908 L 393.163971 249.680908 C 399.910767 249.680908 405.621613 252.039978 410.297241 256.756653 C 414.972778 261.473389 417.309753 267.249878 417.309753 274.085785 C 417.309753 280.632843 414.972778 286.311707 410.297241 291.125916 C 405.621613 295.940094 399.910767 298.346375 393.163971 298.346375 L 287.615753 298.346375 Z M 139.595123 289.557648 C 134.667664 289.557648 130.247375 287.748444 126.334404 284.129791 C 122.421425 280.511139 120.465141 275.401733 120.465141 268.801331 L 120.465141 136.880615 C 120.465141 130.280212 122.421425 125.170807 126.334404 121.552185 C 130.247375 117.933472 134.667664 116.124298 139.595123 116.124298 C 141.855942 116.124298 144.160416 116.471619 146.508179 117.166382 C 148.855972 117.861176 151.565796 119.10614 154.638229 120.90097 L 262.0271 183.169952 C 266.374878 185.659607 269.838684 188.453125 272.418335 191.55069 C 274.997986 194.648285 276.287903 198.39743 276.287903 202.797729 C 276.287903 207.25589 274.997986 211.019012 272.418335 214.087616 C 269.838684 217.156189 266.374878 219.964478 262.0271 222.511993 L 154.638229 284.780975 C 151.565796 286.517944 148.855972 287.748596 146.508179 288.472351 C 144.160416 289.196045 141.855942 289.557648 139.595123 289.557648 Z"/>
</svg>
